<svg fill="currentColor" height="200px" width="200px" version="1.1" id="Capa_1" xmlns="http://www.w3.org/2000/svg"
    xmlns:xlink="http://www.w3.org/1999/xlink" viewBox="0 0 422.506 422.506" xml:space="preserve">
    <g id="SVGRepo_bgCarrier" stroke-width="0"></g>
    <g id="SVGRepo_tracerCarrier" stroke-linecap="round" stroke-linejoin="round"></g>
    <g id="SVGRepo_iconCarrier">
        <g>
            <path
                d="M103.631,36.584H5c-2.762,0-5,2.239-5,5v352.849c0,2.761,2.238,5,5,5h98.631c2.762,0,5-2.239,5-5V41.584 C108.631,38.822,106.393,36.584,103.631,36.584z M98.631,46.584V80.12H10V46.584H98.631z M98.631,90.12v147H10v-147H98.631z M10,389.433V247.12h88.631v142.313H10z">
            </path>
            <path
                d="M88.315,325.12c0-18.748-15.252-34-34-34s-34,15.252-34,34s15.252,34,34,34S88.315,343.868,88.315,325.12z M30.315,325.12 c0-13.234,10.767-24,24-24s24,10.766,24,24s-10.767,24-24,24S30.315,338.354,30.315,325.12z">
            </path>
            <path
                d="M73.315,325.12c0-10.477-8.523-19-19-19s-19,8.523-19,19s8.523,19,19,19S73.315,335.597,73.315,325.12z M45.315,325.12 c0-4.963,4.037-9,9-9s9,4.037,9,9s-4.037,9-9,9S45.315,330.083,45.315,325.12z">
            </path>
            <path
                d="M23.315,130.453h62c2.762,0,5-2.239,5-5s-2.238-5-5-5h-62c-2.762,0-5,2.239-5,5S20.554,130.453,23.315,130.453z">
            </path>
            <path
                d="M23.315,148.787h62c2.762,0,5-2.239,5-5s-2.238-5-5-5h-62c-2.762,0-5,2.239-5,5S20.554,148.787,23.315,148.787z">
            </path>
            <path
                d="M85.315,157.12h-62c-2.762,0-5,2.239-5,5s2.238,5,5,5h62c2.762,0,5-2.239,5-5S88.077,157.12,85.315,157.12z">
            </path>
            <path
                d="M172.395,291.12c-18.748,0-34,15.252-34,34s15.252,34,34,34s34-15.252,34-34S191.143,291.12,172.395,291.12z M172.395,349.12c-13.233,0-24-10.766-24-24s10.767-24,24-24s24,10.766,24,24S185.628,349.12,172.395,349.12z">
            </path>
            <path
                d="M172.395,306.12c-10.477,0-19,8.523-19,19s8.523,19,19,19s19-8.523,19-19S182.871,306.12,172.395,306.12z M172.395,334.12 c-4.963,0-9-4.037-9-9s4.037-9,9-9s9,4.037,9,9S177.357,334.12,172.395,334.12z">
            </path>
            <path
                d="M141.395,130.453h62c2.762,0,5-2.239,5-5s-2.238-5-5-5h-62c-2.762,0-5,2.239-5,5S138.633,130.453,141.395,130.453z">
            </path>
            <path
                d="M141.395,148.787h62c2.762,0,5-2.239,5-5s-2.238-5-5-5h-62c-2.762,0-5,2.239-5,5S138.633,148.787,141.395,148.787z">
            </path>
            <path
                d="M203.395,157.12h-62c-2.762,0-5,2.239-5,5s2.238,5,5,5h62c2.762,0,5-2.239,5-5S206.156,157.12,203.395,157.12z">
            </path>
            <path
                d="M422.31,365.684L324.421,26.684c-0.368-1.274-1.227-2.35-2.388-2.99c-1.16-0.64-2.53-0.794-3.803-0.426L226.71,49.695 v-8.111c0-2.761-2.238-5-5-5h-98.631c-2.762,0-5,2.239-5,5v352.849c0,2.761,2.238,5,5,5h98.631c2.762,0,5-2.239,5-5V79.873 l91.232,315.948c0.632,2.19,2.631,3.614,4.802,3.614c0.459,0,0.926-0.064,1.389-0.198l94.76-27.363 c1.274-0.368,2.351-1.227,2.991-2.388C422.524,368.326,422.678,366.958,422.31,365.684z M216.71,46.584V80.12h-88.631V46.584 H216.71z M216.71,90.12v147h-88.631v-147H216.71z M128.079,389.433V247.12h88.631v142.313H128.079z M369.06,217.319l-85.152,24.589 l-40.782-141.23l85.152-24.589L369.06,217.319z M316.2,34.262l9.304,32.22l-85.152,24.589l-9.304-32.22L316.2,34.262z M326.163,388.242l-39.481-136.727l85.152-24.589l39.481,136.728L326.163,388.242z">
            </path>
            <path
                d="M339.032,246.779c-0.766-2.653-3.539-4.182-6.19-3.417l-35.526,10.259c-2.653,0.766-4.183,3.538-3.417,6.191 c0.632,2.19,2.631,3.614,4.802,3.614c0.459,0,0.926-0.064,1.389-0.198l35.526-10.259 C338.269,252.204,339.799,249.432,339.032,246.779z">
            </path>
            <path
                d="M377.082,364.364c0.633,2.19,2.631,3.614,4.802,3.614c0.459,0,0.926-0.064,1.389-0.198l19.279-5.567 c2.653-0.766,4.184-3.538,3.417-6.191c-0.767-2.652-3.536-4.183-6.19-3.417l-19.279,5.567 C377.846,358.939,376.315,361.711,377.082,364.364z">
            </path>
            <path
                d="M341.465,281.494c-8.726,2.519-15.947,8.286-20.336,16.237c-4.388,7.951-5.417,17.135-2.897,25.861 c4.295,14.873,17.92,24.571,32.68,24.571c3.114,0,6.279-0.432,9.418-1.338c8.726-2.519,15.947-8.286,20.336-16.237 c4.388-7.951,5.417-17.135,2.897-25.861C378.361,286.715,359.478,276.293,341.465,281.494z M371.909,325.756 c-3.097,5.613-8.195,9.683-14.354,11.461c-12.715,3.669-26.046-3.685-29.717-16.4c-1.778-6.159-1.052-12.642,2.046-18.255 c3.097-5.613,8.195-9.683,14.354-11.461c2.217-0.64,4.449-0.945,6.649-0.945c10.417,0,20.036,6.846,23.067,17.344 C375.733,313.66,375.007,320.143,371.909,325.756z">
            </path>
            <path
                d="M369.151,308.888c-2.907-10.065-13.464-15.89-23.525-12.983c-10.065,2.906-15.89,13.459-12.983,23.526 c2.4,8.311,10.015,13.73,18.262,13.73c1.74,0,3.509-0.241,5.263-0.748C366.232,329.507,372.058,318.954,369.151,308.888 C369.151,308.889,369.151,308.888,369.151,308.888z M353.393,322.806c-4.767,1.377-9.766-1.382-11.143-6.149 c-1.376-4.768,1.382-9.767,6.149-11.144c0.831-0.24,1.669-0.354,2.493-0.354c3.907,0,7.514,2.567,8.651,6.504 C360.92,316.43,358.161,321.429,353.393,322.806z">
            </path>
            <path
                d="M323.9,108.926l-59.566,17.2c-2.653,0.766-4.183,3.538-3.417,6.191c0.632,2.19,2.631,3.614,4.802,3.614 c0.459,0,0.926-0.064,1.389-0.198l59.566-17.2c2.653-0.766,4.183-3.538,3.417-6.191C329.325,109.69,326.555,108.16,323.9,108.926z">
            </path>
            <path
                d="M328.987,126.54l-59.566,17.2c-2.653,0.766-4.183,3.538-3.417,6.191c0.632,2.19,2.631,3.614,4.802,3.614 c0.459,0,0.926-0.064,1.389-0.198l59.566-17.2c2.653-0.766,4.183-3.538,3.417-6.191 C334.412,127.304,331.641,125.774,328.987,126.54z">
            </path>
            <path
                d="M334.073,144.154l-59.566,17.2c-2.653,0.766-4.183,3.538-3.417,6.191c0.632,2.19,2.631,3.614,4.802,3.614 c0.459,0,0.926-0.064,1.389-0.198l59.566-17.2c2.653-0.766,4.183-3.538,3.417-6.191 C339.498,144.918,336.728,143.387,334.073,144.154z">
            </path>
            <path
                d="M16.927,261.12h36c2.762,0,5-2.239,5-5s-2.238-5-5-5h-36c-2.762,0-5,2.239-5,5S14.165,261.12,16.927,261.12z">
            </path>
            <path
                d="M90.927,375.12h-36c-2.762,0-5,2.239-5,5s2.238,5,5,5h36c2.762,0,5-2.239,5-5S93.688,375.12,90.927,375.12z">
            </path>
            <path
                d="M161.026,375.12h-26c-2.762,0-5,2.239-5,5s2.238,5,5,5h26c2.762,0,5-2.239,5-5S163.788,375.12,161.026,375.12z">
            </path>
            <path
                d="M135.026,372.12h8.9c2.762,0,5-2.239,5-5s-2.238-5-5-5h-8.9c-2.762,0-5,2.239-5,5S132.265,372.12,135.026,372.12z">
            </path>
            <path
                d="M37.927,269.12c0-2.761-2.238-5-5-5h-16c-2.762,0-5,2.239-5,5s2.238,5,5,5h16C35.688,274.12,37.927,271.882,37.927,269.12z ">
            </path>
            <path
                d="M135.927,60.82h36c2.762,0,5-2.239,5-5s-2.238-5-5-5h-36c-2.762,0-5,2.239-5,5S133.165,60.82,135.927,60.82z">
            </path>
            <path
                d="M135.927,74.12h16c2.762,0,5-2.239,5-5s-2.238-5-5-5h-16c-2.762,0-5,2.239-5,5S133.165,74.12,135.927,74.12z">
            </path>
            <path
                d="M17.927,74.12h16c2.762,0,5-2.239,5-5s-2.238-5-5-5h-16c-2.762,0-5,2.239-5,5S15.165,74.12,17.927,74.12z">
            </path>
        </g>
    </g>
</svg>