<svg fill="currentColor" width="152" height="152" version="1.1" viewBox="0 0 40.217 40.217" xmlns="http://www.w3.org/2000/svg">
    <g transform="translate(-84.96 -172.91)">
        <path
            d="m85.535 172.98c-0.28041 0-0.50591 0.22602-0.50591 0.50643v39.067c0 0.28042 0.2255 0.50592 0.50591 0.50592h39.068c0.28041 0 0.50591-0.2255 0.50591-0.50592v-39.067c0-0.28041-0.2255-0.50643-0.50591-0.50643zm1.8211 2.452h35.426c0.22429 0 0.40515 0.18034 0.40515 0.40463v25.305c0 0.22429-0.18086 0.40411-0.40515 0.40411h-35.426c-0.2243 0-0.40463-0.17982-0.40463-0.40411v-25.305c0-0.22429 0.18033-0.40463 0.40463-0.40463zm17.691 1.6588-7.0063 5.085-2.9533-0.14005-2.9533-0.13952-0.26717 0.32194c-0.14692 0.17703-0.43868 0.79675-0.64854 1.3777s-0.93348 2.5356-1.6082 4.3434-1.2252 3.4151-1.2232 3.5719c0.0031 0.23973 7.3571 6.2316 7.9039 6.4399 0.10046 0.0383 1.8945-1.069 3.9863-2.4608l3.8034-2.5306 0.81649 0.0796 0.81648 0.0801 0.1323 1.6314c0.0728 0.89753 0.19178 1.6859 0.26458 1.7513s1.3229 0.43534 2.7781 0.82218c1.4552 0.38683 3.4197 0.9297 4.3656 1.2066 0.94588 0.27695 1.9755 0.51205 2.2877 0.52245l0.56741 0.0186 2.8205-4.2266 2.821-4.2266-3.2169-3.9755c-1.7693-2.1865-3.3163-3.9755-3.4375-3.9755s-0.51848 0.11353-0.88315 0.25218l-0.66352 0.25219-4.2514-3.0406zm3e-3 2.1001 0.86144 0.60203c1.8292 1.2796 5.4911 4.006 5.4911 4.0881 0 0.0669-1.1532 3.7364-2.2588 7.1877l-0.10593 0.33073h-7.6249l-0.26148-0.33073c-0.14388-0.1819-0.75685-1.8785-1.3622-3.7703l-1.1007-3.4396 0.64389-0.52917c0.35407-0.29104 1.7854-1.3416 3.1807-2.3342zm-11.91 4.5356h3.3817l0.27388 0.33072c0.15089 0.1819 0.88728 2.203 1.6361 4.4917s1.4735 4.231 1.6102 4.3155c0.48417 0.29924 0.22823 0.58702-1.6004 1.803-1.0169 0.67619-1.9017 1.2299-1.9663 1.2299s-1.4054-1.0197-2.9797-2.2655l-2.8624-2.265-0.08475-0.37672c-0.08974-0.39883 1.2113-4.2439 2.0774-6.1392zm21.306 0.8387 0.37103 0.30799c0.2041 0.16937 1.3054 1.4615 2.4474 2.8717l2.0764 2.5637v0.41496c0 0.22816-0.91134 1.7832-2.0252 3.4556l-2.0252 3.0412-0.2899-0.0233c-0.69659-0.056-6.9058-1.875-7.1815-2.1038l-0.3054-0.25322 0.0269-0.86041 0.0264-0.86041 2.5104-0.1612 0.25218-0.47181c0.13881-0.25937 0.7476-1.9904 1.3529-3.8468l1.1007-3.375 0.83147-0.34985zm-27.406 18.786 4.3909 0.0481c2.5343 0.0275 4.5846 0.0873 4.8488 0.14211 1.0433 0.21609 1.606 0.46102 1.9751 0.85938 0.33936 0.36629 0.35553 0.408 0.35553 0.92243 0 0.57042-0.15559 0.90364-0.5209 1.1147-0.26348 0.15219-1.0568 0.34004-1.4511 0.34364-0.19187 1e-3 -0.3722 0.0437-0.4005 0.093-0.02862 0.0501 0.03412 0.0899 0.14108 0.0899 0.68741 0 1.986 0.48183 2.141 0.79427 0.0539 0.10875 0.09043 0.74694 0.09043 1.5818v1.3999l-5.2028-0.0476-0.04134-1.4573c-0.05098-1.7846-0.02986-1.7475-1.0377-1.8045l-0.71055-0.0403v1.5317c0 0.84219-0.02283 1.5951-0.05064 1.6733-0.04434 0.12473-0.32426 0.14211-2.2887 0.14211h-2.2386v-3.6933zm26.387 0.0191h9.663l-0.0243 0.6966-0.0248 0.69608-3.9119 0.09v1.3477l3.4541 0.0486v1.34l-3.4541 0.0486-0.0418 1.5276-0.0413 2.0562-2.7528 0.0238c-1.514 0.0129-2.8096-0.0372-2.8096-0.0372-0.0312-0.0337-0.0563-2.2207-0.0563-4.2137zm-21.557 1.2103c-0.05974 1e-3 -0.10666 7e-3 -0.13488 0.0186-0.08812 0.0365-0.11679 0.24467-0.11679 0.84749v0.79892l0.47852-5.3e-4c0.26324-2.7e-4 0.61899-0.0421 0.79013-0.0935 0.17114-0.0513 0.349-0.17013 0.39532-0.26355 0.13681-0.27592 0.10163-0.85555-0.0615-1.0139-0.13152-0.12766-0.98579-0.30022-1.3508-0.29352zm10.264 0.13745h2.4417l0.40256 0.92088c1.2916 2.9541 1.3064 2.9827 1.4268 2.805 0.062-0.0915 0.11266-0.25398 0.11266-0.36071 0-0.10663 0.0335-0.31149 0.0744-0.45475 0.041-0.14327 0.15729-0.66445 0.25838-1.1586 0.10109-0.49414 0.23108-1.0804 0.28836-1.3028l0.10387-0.40411 2.3626-0.0243c1.2994-0.0132 2.4074-5e-3 2.4624 0.0176 0.0686 0.0284-0.0528 0.45973-0.38603 1.3715-0.26735 0.73156-0.64563 1.7752-0.84077 2.3187-0.66444 1.8508-0.94717 2.3086-1.6102 2.6076-0.78313 0.3531-1.4126 0.41306-4.8979 0.46457l-3.392 0.0501v-0.92088l0.68678-0.0108c0.87723-0.0136 1.1765-0.0841 1.2123-0.28474 0.0156-0.0874-0.16818-0.49131-0.40876-0.89762-0.24061-0.4063-0.62962-1.0625-0.86455-1.4578-1.5457-2.6008-1.8743-3.1646-1.8743-3.2184 0-0.0332 1.0987-0.0605 2.4417-0.0605z"
            stroke-width=".26458" />
    </g>
</svg>